<svg height="512pt" viewBox="0 0 512 512.00123" width="512pt" xmlns="http://www.w3.org/2000/svg"><path d="m492.304688 174.5-104.496094-149.558594c-3.902344-5.402344-11.503906-7.5-17.5-5.703125-6.300782 2.101563-10.5 7.800781-10.5 14.402344l.296875 54.296875c0 .601562 0 3.300781-3.296875 5.101562-2.703125 1.199219-6.203125 2.097657-8.601563.601563l-43.5-35.402344c-.601562-.601562-1.5-1.5.601563-5.699219 2.699218-5.097656 5.097656-10.199218 8.097656-16.5l4.203125-8.699218c2.097656-4.5 1.796875-9.601563-.300781-13.800782-2.402344-4.199218-6.300782-6.902343-11.101563-7.800781l-17.097656-2.398437c-14.703125-2.101563-25.199219-3.601563-33.300781-3.3007815-15.300782.6015625-22.5 6.8984375-34.800782 25.4999995-4.199218 6.597657-10.199218 15.597657-19.199218 27-.902344 1.199219-2.097656 1.800782-3 1.800782-.898438 0-2.097656 0-3.300782-1.199219-22.5-18.902344-36.597656-18.601563-58.5 1.796875l-102.199218 100.0625c-33.902344 26.703125-42.902344 57-27.601563 92.703125l34.097657 78.597656c6.300781 15.601563 19.503906 27.597657 35.703124 32.703125 16.5 4.796875 33.898438 2.398438 48.300782-7.203125l60.296875-40.199219c10.199219-6.601562 25.800781-14.101562 43.199219-13.5 10.5.300782 19.5 2.699219 27 7.5 4.203124 1.800782 8.101562 5.097657 11.402343 8.699219l9 9.902344c13.199219 14.097656 26.097657 28.199219 39.898438 41.398437 17.699219 16.800782 41.101562 26.398438 65.402343 26.398438h3.300782c23.398437-.898438 44.398437-10.496094 59.398437-27 26.101563-29.097656 46.601563-61.199219 58.601563-95.398438 13.199218-37.199218 13.5-57-10.503906-95.101562zm0 0" fill="#7fe881"/><g fill="#5bc980"><path d="m390.808594 512c-31.421875 0-51.84375-43.007812-57.90625-71.921875-.9375-4.425781.191406-9.023437 3.03125-12.523437 2.84375-3.515626 7.132812-5.554688 11.644531-5.554688h86.457031c4.511719 0 8.804688 2.039062 11.644532 5.554688 2.84375 3.5 3.972656 8.097656 3.035156 12.523437-6.066406 28.914063-26.488282 71.921875-57.90625 71.921875zm0 0"/><path d="m502.808594 269.601562c-12.003906 34.199219-32.5 66.300782-58.601563 95.398438-15 16.5-36 26.101562-59.398437 27h-3.300782c-24.300781 0-47.703124-9.597656-65.402343-26.398438-13.800781-13.199218-26.699219-27.300781-39.898438-41.398437l-9-9.902344c-3.300781-3.601562-7.199219-6.898437-11.402343-8.699219v-305.5624995c8.101562-.3007815 18.601562 1.1992185 33.300781 3.3007815l17.101562 2.398437c4.800781.902344 8.699219 3.601563 11.097657 7.800781 2.101562 4.199219 2.402343 9.300782.300781 13.800782l-4.199219 8.699218c-3 6.300782-5.398438 11.402344-8.097656 16.5-2.101563 4.199219-1.203125 5.101563-.601563 5.699219l43.5 35.402344c2.398438 1.5 5.898438.601563 8.597657-.601563 3.300781-1.800781 3.300781-4.5 3.300781-5.097656l-.300781-54.300781c0-6.597656 4.199218-12.300781 10.5-14.398437 6-1.800782 13.601562.300781 17.5 5.699218l104.5 149.558594c24.003906 38.101562 23.703124 57.902344 10.503906 95.101562zm0 0"/></g></svg>