<svg id="Layer_1" enable-background="new 0 0 515 515" height="512" viewBox="0 0 515 515" width="512" xmlns="http://www.w3.org/2000/svg"><g><path d="m468.745 177.015-45.553-29.475c-6.883-4.454-16.067-2.551-20.615 4.27l-.228.342c4.637-6.955 2.689-16.358-4.329-20.899l-45.553-29.476c-6.883-4.454-16.067-2.551-20.615 4.27l-.228.342c4.637-6.955 2.689-16.358-4.329-20.899l-51.615-33.398c-6.883-4.454-16.067-2.551-20.615 4.27l-.227.341c4.636-6.955 2.688-16.358-4.329-20.898l-51.614-33.399c-6.883-4.454-16.067-2.551-20.615 4.27l-136.356 204.534c-3.507 5.261-3.336 12.156.427 17.237l105.208 142.031c2.668 3.602 3.584 8.209 2.497 12.557l-28.335 113.341c-2.365 9.46 4.79 18.625 14.542 18.625h243.48c8.278 0 14.989-6.711 14.989-14.989v-89.136s3.528-2.36 8.748-5.84c27.06-18.04 43.314-48.409 43.314-80.931v-86.771l26.279-39.419c4.637-6.956 2.69-16.359-4.328-20.9z" fill="#b45a46"/><path d="m468.745 177.015-45.553-29.476c-6.883-4.454-16.067-2.551-20.615 4.27l-.228.342c4.637-6.955 2.689-16.358-4.329-20.899l-45.553-29.476c-6.883-4.453-16.067-2.551-20.615 4.27l-.228.342-71.274 106.912c-2.782 4.173-7.465 6.68-12.481 6.68h-95.969c-8.077 0-15.027 6.207-15.407 14.275-.406 8.614 6.458 15.725 14.983 15.725h84.422l-85.45 128.175c.135 1.62.01 3.268-.393 4.881l-28.335 113.341c-2.365 9.46 4.79 18.624 14.542 18.624h243.48c8.278 0 14.989-6.711 14.989-14.989v-89.136s3.528-2.36 8.748-5.84c27.06-18.04 43.314-48.409 43.314-80.931v-86.771l26.279-39.419c4.638-6.956 2.69-16.359-4.327-20.9z" fill="#824332"/><path d="m379.743 515c8.278 0 14.989-6.711 14.989-14.989v-89.136s3.528-2.36 8.748-5.84c27.06-18.04 43.314-48.409 43.314-80.931v-86.771l26.279-39.419c4.637-6.955 2.689-16.358-4.329-20.899l-45.553-29.475c-6.883-4.454-16.067-2.551-20.615 4.27l-.228.342c4.637-6.955 2.689-16.358-4.329-20.899l-45.553-29.476c-6.883-4.454-16.067-2.551-20.615 4.27l-.228.342-95.56 143.341 52.959 105.919c1.041 2.081 1.582 4.376 1.582 6.703v152.648z" fill="#1e140a"/><path d="m341.003 244.171 61.347-92.02c4.637-6.955 2.689-16.358-4.329-20.899l-45.553-29.476c-6.883-4.454-16.067-2.551-20.615 4.27l-66.093 99.141c-5.153 7.73-2.106 18.239 6.384 22.012l50.3 22.355c6.671 2.966 14.509.692 18.559-5.383z" fill="#824332"/><path d="m327.296 85.489-51.615-33.398c-6.883-4.454-16.067-2.552-20.615 4.27l-46.892 70.339 67.246 33.623c8.064 4.032 10.769 14.219 5.769 21.72l50.436-75.655c4.636-6.955 2.689-16.358-4.329-20.899z" fill="#502b1e"/><path d="m343.853 239.895 58.724-88.086c4.548-6.821 13.732-8.724 20.615-4.27l45.553 29.476c7.018 4.541 8.965 13.944 4.329 20.899l-53.977 80.966c-4.05 6.075-11.888 8.348-18.56 5.383l-50.3-22.355c-8.489-3.774-11.537-14.282-6.384-22.013z" fill="#502b1e"/><path d="" fill="#b45a46"/><path d="m118.402 96.494c4.193-6.29 12.413-8.473 19.175-5.093l70.598 35.299 46.664-69.997c4.636-6.955 2.689-16.358-4.329-20.899l-51.615-33.398c-6.883-4.454-16.067-2.551-20.615 4.27z" fill="#824332"/></g></svg>