<?xml version="1.0"?>
<svg xmlns="http://www.w3.org/2000/svg" xmlns:xlink="http://www.w3.org/1999/xlink" xmlnsSvgjs="http://svgjs.com/svgjs" version="1.1" width="512" height="512" x="0" y="0" viewBox="0 0 512.00017 512" style="enable-background:new 0 0 512 512" xml:space="preserve" class=""><g><path xmlns="http://www.w3.org/2000/svg" d="m272.066406 351.332031h-32.132812c-5.015625 0-9.699219-2.503906-12.480469-6.679687l-27.679687-41.519532h-24.105469c-3.980469 0-7.792969-1.582031-10.609375-4.394531l-11.671875-11.671875h-58.050781c-3.246094 0-6.40625-1.054687-9-3l-64.269532-48.199218c-3.183594-2.386719-5.285156-5.941407-5.847656-9.878907l-16.066406-112.46875c-.332032-2.304687-.121094-4.652343.617187-6.863281l32.132813-96.398438c2.042968-6.125 7.773437-10.257812 14.230468-10.257812h257.066407c8.285156 0 15 6.714844 15 15v17.132812h33.199219c6.882812 0 12.882812 4.683594 14.554687 11.363282l13.226563 52.902344h14.207031l75.941406-75.9375c2.8125-2.8125 6.625-4.394532 10.605469-4.394532h16.066406c8.285156 0 15 6.714844 15 15v64.265625c0 2.328125-.542969 4.625-1.582031 6.710938l-30.550781 61.097656v44.660156c0 3.976563-1.582032 7.792969-4.394532 10.605469l-18.164062 18.164062c-3.058594 3.058594-3.535156 7.878907-1.136719 11.476563l21.175781 31.765625c3.964844 5.949219 3.183594 13.871094-1.875 18.925781l-32.132812 32.136719c-5.855469 5.855469-15.355469 5.855469-21.210938 0l-43.808594-43.808594h-48.78125l-3.890624 7.773438c-2.539063 5.082031-7.734376 8.292968-13.414063 8.292968h-13.289063l-12.648437 37.941407c-2.042969 6.125-7.773437 10.257812-14.230469 10.257812zm0 0" fill="#7fe881" data-original="#148cc8" style="" class=""/><path xmlns="http://www.w3.org/2000/svg" d="m497 16.066406h-16.066406c-3.980469 0-7.792969 1.582032-10.605469 4.394532l-75.941406 75.9375h-14.207031l-13.226563-52.902344c-1.667969-6.679688-7.667969-11.363282-14.550781-11.363282h-33.199219v-17.132812c0-8.285156-6.71875-15-15-15h-48.203125v351.332031h16.066406c6.457032 0 12.1875-4.128906 14.230469-10.257812l12.648437-37.941407h13.289063c5.679687 0 10.875-3.210937 13.414063-8.292968l3.890624-7.773438h48.78125l43.808594 43.808594c5.855469 5.855469 15.351563 5.855469 21.210938 0l32.132812-32.136719c5.058594-5.054687 5.839844-12.976562 1.875-18.925781l-21.175781-31.765625c-2.398437-3.597656-1.921875-8.417969 1.136719-11.476563l18.164062-18.164062c2.8125-2.8125 4.394532-6.628906 4.394532-10.605469v-44.660156l30.550781-61.097656c1.042969-2.085938 1.582031-4.382813 1.582031-6.710938v-64.265625c0-8.285156-6.714844-15-15-15zm0 0" fill="#5bc980" data-original="#0064a0" style="" class=""/></g></svg>
